<?xml version="1.0" encoding="UTF-8" standalone="no"?><!DOCTYPE svg PUBLIC "-//W3C//DTD SVG 1.1//EN" "http://www.w3.org/Graphics/SVG/1.1/DTD/svg11.dtd"><svg width="100%" height="100%" viewBox="0 0 2500 1000" version="1.1" xmlns="http://www.w3.org/2000/svg" xmlns:xlink="http://www.w3.org/1999/xlink" xml:space="preserve" xmlns:serif="http://www.serif.com/" style="fill-rule:evenodd;clip-rule:evenodd;stroke-linejoin:round;stroke-miterlimit:2;"><g><path d="M15,363l0,-148.6c0,-105.085 85.315,-190.4 190.4,-190.4l2089.2,0c105.085,0 190.4,85.315 190.4,190.4l0,148.6c-75.612,0 -137,61.388 -137,137c0,75.612 61.388,137 137,137l0,148.6c0,105.085 -85.315,190.4 -190.4,190.4l-2089.2,0c-105.085,0 -190.4,-85.315 -190.4,-190.4l0,-148.6c75.612,0 137,-61.388 137,-137c0,-75.612 -61.388,-137 -137,-137Z" style="fill:#efbd00;"/><g><path d="M944.7,441.081l-580.161,0l542.597,-197.628c4.954,-1.805 8.989,-5.503 11.216,-10.282c2.226,-4.779 2.465,-10.246 0.66,-15.2l-35.477,-97.397c-3.757,-10.321 -15.168,-15.617 -25.481,-11.876l-619.709,225.717c-4.954,1.805 -8.985,5.503 -11.216,10.282c-2.226,4.779 -2.465,10.246 -0.66,15.2l35.473,97.393c0.632,1.733 1.515,3.292 2.537,4.723l0,410.606c0,10.981 8.902,19.879 19.879,19.879l660.342,0c10.981,0 19.879,-8.898 19.879,-19.879l0,-411.66c0,-10.981 -8.898,-19.879 -19.879,-19.879Zm-81.795,-260.975l11.947,32.793l-18.535,6.751l6.588,-39.544Zm-148.105,23.084l76.893,-28.006l-12.063,72.396l-76.893,28.006l12.063,-72.396Zm-153.575,55.936l76.889,-28.006l-12.063,72.396l-76.889,28.006l12.063,-72.396Zm-153.579,55.94l76.889,-28.006l-12.063,72.392l-76.885,28.006l12.059,-72.392Zm-76.69,27.934l-12.063,72.392l-26.392,9.614l-21.867,-60.035l60.322,-21.971Zm2.179,201.735l-28.089,0l0,-63.896l64.202,0l-36.113,63.896Zm163.447,0l-81.827,0l36.113,-63.896l81.831,0l-36.117,63.896Zm163.451,0l-81.831,0l36.109,-63.896l81.835,0l-36.113,63.896Zm163.451,0l-81.835,0l36.113,-63.896l81.835,0l-36.113,63.896Zm101.337,0l-19.724,0l19.724,-34.9l0,34.9Z" style="fill:#0f304a;fill-rule:nonzero;"/><g transform="matrix(1,0,0,1,371.670992,33.527561)"><g transform="matrix(500,0,0,500,747.160735,418.972439)"><path d="M0.042,-0l0,-0.112l0.332,-0.448l-0.322,0l0,-0.13l0.504,0l0,0.112l-0.332,0.448l0.342,0l0,0.13l-0.524,-0Z" style="fill:#0f304a;fill-rule:nonzero;"/></g><g transform="matrix(500,0,0,500,1051.140014,418.972439)"><path d="M0.064,-0.162l0,-0.204c0,-0.108 0.054,-0.162 0.162,-0.162l0.14,0c0.108,0 0.162,0.054 0.162,0.162l0,0.204c0,0.108 -0.054,0.162 -0.162,0.162l-0.14,-0c-0.108,-0 -0.162,-0.054 -0.162,-0.162Zm0.138,0.01c0,0.021 0.011,0.032 0.032,0.032l0.124,0c0.021,0 0.032,-0.011 0.032,-0.032l0,-0.224c0,-0.021 -0.011,-0.032 -0.032,-0.032l-0.124,0c-0.021,0 -0.032,0.011 -0.032,0.032l0,0.224Z" style="fill:#0f304a;fill-rule:nonzero;"/></g><g transform="matrix(500,0,0,500,1347.119292,418.972439)"><path d="M0.072,-0l0,-0.528l0.292,0c0.108,0 0.162,0.054 0.162,0.162l0,0.366l-0.138,-0l0,-0.376c0,-0.021 -0.011,-0.032 -0.032,-0.032l-0.146,0l0,0.408l-0.138,-0Z" style="fill:#0f304a;fill-rule:nonzero;"/></g><g transform="matrix(500,0,0,500,1644.098571,418.972439)"><path d="M0.064,-0.162l0,-0.204c0,-0.108 0.054,-0.162 0.162,-0.162l0.13,0c0.108,0 0.162,0.054 0.162,0.162l0,0.153l-0.316,0l0,0.061c0,0.021 0.011,0.032 0.032,0.032l0.264,0l0,0.075l-0.06,0.045l-0.212,-0c-0.108,-0 -0.162,-0.054 -0.162,-0.162Zm0.138,-0.157l0.178,0l0,-0.057c0,-0.021 -0.011,-0.032 -0.032,-0.032l-0.114,0c-0.021,0 -0.032,0.011 -0.032,0.032l0,0.057Z" style="fill:#0f304a;fill-rule:nonzero;"/></g><g transform="matrix(500,0,0,500,1935.077849,418.972439)"></g><g transform="matrix(500,0,0,500,747.160735,858.972439)"><path d="M0.072,-0.168l0,-0.353c0,-0.112 0.056,-0.168 0.168,-0.168l0.267,0l0.067,0.052l0,0.078l-0.328,0c-0.02,0 -0.03,0.01 -0.03,0.03l0,0.37c0,0.02 0.01,0.03 0.03,0.03l0.328,0l0,0.078l-0.067,0.052l-0.267,-0c-0.112,-0 -0.168,-0.056 -0.168,-0.168Z" style="fill:#0f304a;fill-rule:nonzero;"/></g><g transform="matrix(500,0,0,500,1059.213622,858.972439)"><path d="M0.069,-0.615l0,-0.135l0.143,0l0,0.135l-0.143,0Zm0.003,0.615l0,-0.528l0.138,0l0,0.528l-0.138,-0Z" style="fill:#0f304a;fill-rule:nonzero;"/></g><g transform="matrix(500,0,0,500,1200.253417,858.972439)"><path d="M0.072,-0l0,-0.528l0.292,0c0.108,0 0.162,0.054 0.162,0.162l0,0.366l-0.138,-0l0,-0.376c0,-0.021 -0.011,-0.032 -0.032,-0.032l-0.146,0l0,0.408l-0.138,-0Z" style="fill:#0f304a;fill-rule:nonzero;"/></g><g transform="matrix(500,0,0,500,1497.232695,858.972439)"><path d="M0.064,-0.162l0,-0.204c0,-0.108 0.054,-0.162 0.162,-0.162l0.13,0c0.108,0 0.162,0.054 0.162,0.162l0,0.153l-0.316,0l0,0.061c0,0.021 0.011,0.032 0.032,0.032l0.264,0l0,0.075l-0.06,0.045l-0.212,-0c-0.108,-0 -0.162,-0.054 -0.162,-0.162Zm0.138,-0.157l0.178,0l0,-0.057c0,-0.021 -0.011,-0.032 -0.032,-0.032l-0.114,0c-0.021,-0 -0.032,0.011 -0.032,0.032l0,0.057Zm0.004,-0.32l0.138,-0.157l0.075,0.071l-0.148,0.149l-0.065,-0.063Z" style="fill:#0f304a;fill-rule:nonzero;"/></g><g transform="matrix(500,0,0,500,1788.211974,858.972439)"></g></g></g></g></svg>